<?xml version="1.0" encoding="iso-8859-1"?>
<!-- Generator: Adobe Illustrator 19.0.0, SVG Export Plug-In . SVG Version: 6.00 Build 0)  -->
<svg version="1.1" id="Capa_1" xmlns="http://www.w3.org/2000/svg" xmlns:xlink="http://www.w3.org/1999/xlink" x="0px" y="0px"
	 viewBox="0 0 512.003 512.003" style="enable-background:new 0 0 512.003 512.003;" xml:space="preserve">
<g>
	<g>
		<g>
			<path d="M401.069,290.135c-39.134,0-73.6,20.372-93.353,51.066l-31.424-17.138c-7.253-3.959-11.759-11.546-11.759-19.806v-28.228
				c5.717-7.484,22.076-30.814,29.892-61.764c8.064-6.468,12.774-16.145,12.774-26.53v-34.133c0-8.218-3.072-16.179-8.533-22.4
				V85.813c0.478-4.693,2.355-32.64-17.852-55.689C263.287,10.13,234.846,0.001,196.267,0.001c-38.571,0-67.021,10.129-84.54,30.123
				c-20.215,23.049-18.338,50.995-17.86,55.689v45.389c-5.461,6.221-8.533,14.182-8.533,22.4v34.133
				c0,10.385,4.719,20.062,12.774,26.53c7.817,30.95,24.183,54.281,29.892,61.764v28.228c0,8.26-4.506,15.846-11.75,19.806
				l-76.134,41.523C15.377,379.086,0,404.976,0,433.17v36.164c0,4.71,3.823,8.533,8.533,8.533h312.565
				c20.2,21.025,48.583,34.133,79.971,34.133c61.167,0,110.933-49.766,110.933-110.933S462.236,290.135,401.069,290.135z
				 M17.067,460.801V433.17c0-21.939,11.964-42.095,31.224-52.599l76.134-41.532c12.732-6.946,20.642-20.275,20.642-34.782v-31.189
				c0-1.988-0.7-3.934-1.98-5.47c-0.213-0.247-21.171-25.737-29.099-60.297c-0.495-2.167-1.826-4.053-3.686-5.257
				c-4.949-3.2-7.902-8.542-7.902-14.31v-34.133c0-4.787,2.031-9.25,5.726-12.587c1.792-1.613,2.807-3.917,2.807-6.332V85.335
				c0-0.375-0.026-0.742-0.077-1.118c-0.026-0.239-2.927-23.876,13.696-42.837c14.148-16.137,38.272-24.311,71.714-24.311
				c33.323,0,57.404,8.124,71.569,24.141c16.606,18.782,13.867,42.803,13.841,43.008c-0.051,0.375-0.077,0.742-0.077,1.118v49.348
				c0,2.415,1.024,4.719,2.816,6.332c3.686,3.336,5.717,7.799,5.717,12.587v34.133c0,5.769-2.944,11.11-7.893,14.31
				c-1.869,1.203-3.191,3.089-3.686,5.257c-7.936,34.56-28.894,60.049-29.107,60.297c-1.271,1.536-1.98,3.482-1.98,5.47v31.189
				c0,14.507,7.919,27.836,20.651,34.782l31.498,17.185c-6.089,13.72-9.479,28.893-9.479,44.844c0,21.976,6.424,42.48,17.492,59.733
				H17.067z M401.069,494.935c-27.378,0-52.055-11.786-69.229-30.548c-0.362-0.507-0.779-0.971-1.241-1.387
				c-14.554-16.54-23.396-38.222-23.396-61.931c0-51.755,42.112-93.867,93.867-93.867c51.755,0,93.867,42.112,93.867,93.867
				C494.936,452.823,452.824,494.935,401.069,494.935z"/>
			<path d="M452.269,392.535h-42.667v-42.667c0-4.71-3.823-8.533-8.533-8.533s-8.533,3.823-8.533,8.533v42.667h-42.667
				c-4.71,0-8.533,3.823-8.533,8.533s3.823,8.533,8.533,8.533h42.667v42.667c0,4.71,3.823,8.533,8.533,8.533
				s8.533-3.823,8.533-8.533v-42.667h42.667c4.71,0,8.533-3.823,8.533-8.533S456.98,392.535,452.269,392.535z"/>
		</g>
	</g>
</g>
<g>
</g>
<g>
</g>
<g>
</g>
<g>
</g>
<g>
</g>
<g>
</g>
<g>
</g>
<g>
</g>
<g>
</g>
<g>
</g>
<g>
</g>
<g>
</g>
<g>
</g>
<g>
</g>
<g>
</g>
</svg>