<svg height="512pt" viewBox="0 0 512 512" width="512pt" xmlns="http://www.w3.org/2000/svg"><path d="m433.523438 163.125c-.328126-6.972656-6.335938-12.335938-13.316407-12.335938h-15.046875c-9.722656 0-14.59375-11.753906-7.71875-18.628906l28.304688-28.304687c4.953125-4.953125 5.335937-13.421875.472656-18.464844-5.046875-5.234375-13.382812-5.292969-18.503906-.171875l-34.085938 34.085938c-4.855468 4.851562-13.152344 1.417968-13.152344-5.445313v-43.992187c0-6.980469-5.363281-12.988282-12.335937-13.316407-7.445313-.351562-13.589844 5.582031-13.589844 12.949219v82.402344c0 13.703125 11.109375 24.816406 24.8125 24.816406h61.210938c7.367187-.003906 13.300781-6.148438 12.949219-13.59375zm0 0" fill="#ffca28"/><path d="m420.207031 150.789062h-6.832031c-.976562 6.191407-6.335938 10.929688-12.800781 10.929688-66.695313 0-61.957031.070312-64.070313-.171875 3.871094 9.175781 12.855469 15.171875 22.859375 15.171875h61.210938c7.367187 0 13.300781-6.148438 12.949219-13.589844-.328126-6.976562-6.335938-12.339844-13.316407-12.339844zm0 0" fill="#ffa000"/><path d="m365.222656 182.25-35.472656-35.472656c-7.316406-7.316406-19.222656-7.3125-26.539062 0-4.539063 4.542968-6.261719 10.863281-5.160157 16.753906.386719 2.070312-.253906 4.195312-1.789062 5.636719l-39.84375 37.328125c-21.691407 20.316406-46.601563 36.398437-74.050781 47.796875l-34.609376 14.375c-18.261718 7.585937-34.613281 18.523437-48.597656 32.503906l-89.367187 89.371094c-13.058594 13.054687-13.058594 34.300781 0 47.359375l64.304687 64.304687c13.058594 13.058594 34.300782 13.058594 47.363282 0l89.363281-89.367187c13.984375-13.984375 24.921875-30.332032 32.507812-48.597656l14.371094-34.609376c11.359375-27.351562 27.550781-52.433593 47.800781-74.046874l37.328125-39.847657c1.441407-1.539062 3.570313-2.175781 5.644531-1.789062 7.464844 1.394531 15.617188-1.746094 19.960938-9.40625 3.59375-6.34375 3.261719-15.816407-3.214844-22.292969zm0 0" fill="#66bb6a"/><path d="m365.222656 182.25-35.472656-35.472656c-6.1875-6.183594-15.644531-7.117188-22.84375-2.84375l18.011719 18.011718c7.910156 7.910157 7.457031 19.6875.300781 26.84375-5.359375 5.359376-13.203125 6.792969-19.890625 4.28125l-39.824219 42.511719c-20.25 21.613281-36.441406 46.699219-47.800781 74.050781l-14.375 34.609376c-7.585937 18.261718-18.519531 34.613281-32.503906 48.59375l-89.367188 89.371093c-5.09375 5.09375-11.433593 8.191407-18.050781 9.308594l10.691406 10.691406c13.058594 13.058594 34.300782 13.058594 47.359375 0l89.367188-89.367187c13.984375-13.984375 24.917969-30.332032 32.503906-48.597656l14.375-34.609376c11.359375-27.351562 27.550781-52.433593 47.796875-74.046874l37.332031-39.847657c1.441407-1.539062 3.570313-2.175781 5.644531-1.789062 7.464844 1.394531 15.617188-1.746094 19.960938-9.40625 3.59375-6.34375 3.261719-15.816407-3.214844-22.292969zm0 0" fill="#388e3c"/><path d="m102.070312 350.0625c-1.953124-1.953125-5.117187-1.953125-7.070312 0l-42.984375 42.980469c-1.953125 1.953125-1.953125 5.121093 0 7.074219l59.867187 59.867187c1.953126 1.953125 5.121094 1.953125 7.074219 0l42.980469-42.984375c1.953125-1.953125 1.953125-5.117188 0-7.070312zm0 0" fill="#ffca28"/><path d="m145.589844 366.40625c-7.503906-7.503906-19.671875-7.503906-27.175782 0-7.503906 7.503906-7.503906 19.671875 0 27.175781 7.503907 7.503907 19.671876 7.503907 27.175782 0 7.503906-7.503906 7.503906-19.671875 0-27.175781zm0 0" fill="#fff"/><path d="m370.683594 194.355469c-.28125-4.703125-2.453125-9.097657-5.785156-12.429688l-35.148438-35.148437c-7.316406-7.316406-19.222656-7.3125-26.539062 0-4.539063 4.542968-6.261719 10.863281-5.160157 16.753906.386719 2.070312-.25 4.195312-1.789062 5.636719l-39.84375 37.328125c-12.246094 11.46875-25.515625 21.589844-39.691407 30.28125-18.378906 11.265625-32.230468 16.636718-43.992187 21.519531v73.472656c0 4.140625 3.359375 7.5 7.5 7.5h73.46875c4.90625-11.820312 10.257813-25.621093 21.523437-43.992187 8.6875-14.175782 18.808594-27.449219 30.28125-39.695313l37.242188-39.753906c1.433594-1.53125 3.550781-2.296875 5.609375-1.902344 12.09375 2.339844 23.0625-7.296875 22.324219-19.570312zm0 0" fill="#ffa000"/><path d="m365.222656 182.25-35.472656-35.472656c-4.191406-4.1875-9.882812-5.964844-15.359375-5.359375l25.527344 25.53125c7.898437 7.898437 7.46875 19.671875.300781 26.84375-5.359375 5.359375-13.207031 6.789062-19.890625 4.28125l-39.824219 42.507812c-14.773437 15.769531-27.300781 33.277344-37.421875 52.1875-.007812-.003906-.011719-.007812-.015625-.011719-2.773437 5.179688-4.949218 9.644532-6.898437 13.929688-4.863281 10.707031-15.542969 17.582031-27.308594 17.582031h-36.128906v7.5c0 4.140625 3.359375 7.5 7.5 7.5h73.46875c4.910156-11.816406 10.261719-25.621093 21.523437-43.992187 8.691406-14.175782 18.808594-27.449219 30.28125-39.695313l37.328125-39.84375c1.441407-1.539062 3.570313-2.171875 5.644531-1.785156 7.46875 1.394531 15.632813-1.75 19.972657-9.433594 3.582031-6.339843 3.242187-15.796875-3.226563-22.269531zm0 0" fill="#ff6f00"/><path d="m115.6875 436.910156c-1.921875 0-3.839844-.730468-5.304688-2.195312l-33.097656-33.097656c-2.929687-2.929688-2.929687-7.679688 0-10.609376 2.929688-2.929687 7.679688-2.925781 10.605469 0l33.101563 33.101563c2.925781 2.929687 2.925781 7.675781 0 10.605469-1.46875 1.464844-3.386719 2.195312-5.304688 2.195312zm0 0" fill="#ffa000"/><path d="m487.863281 45.566406-21.429687-21.429687c-2.929688-2.929688-7.679688-2.929688-10.609375 0l-21.917969 21.917969c-2.925781 2.929687-2.929688 7.679687 0 10.609374l21.429688 21.429688c2.929687 2.925781 7.675781 2.925781 10.605468 0l21.921875-21.921875c2.925781-2.925781 2.925781-7.675781 0-10.605469zm0 0" fill="#ff6f00"/><path d="m509.804688 33.566406-31.371094-31.371094c-2.929688-2.925781-7.675782-2.925781-10.605469 0l-16.972656 16.972657c-2.929688 2.929687-2.929688 7.675781 0 10.605469l31.371093 31.371093c2.925782 2.925781 7.675782 2.929688 10.605469 0l16.972657-16.972656c2.925781-2.929687 2.925781-7.675781 0-10.605469zm0 0" fill="#ffa000"/><path d="m240.578125 289.300781c-3.453125-8-9.878906-14.425781-17.878906-17.875-3.621094-1.566406-5.972657-5.121093-5.972657-9.070312v-25.578125c-18.378906 11.265625-32.230468 16.636718-43.992187 21.519531v73.472656c0 4.140625 3.355469 7.5 7.5 7.5h73.46875c4.90625-11.820312 10.257813-25.621093 21.519531-43.992187h-25.578125c-3.945312 0-7.503906-2.355469-9.066406-5.976563zm0 0" fill="#757575"/><path d="m249.644531 295.277344c-2.480469 0-4.804687-.929688-6.578125-2.519532-2.773437 5.175782-4.949218 9.640626-6.894531 13.925782-4.867187 10.710937-15.546875 17.585937-27.308594 17.585937h-36.132812v7.5c0 4.140625 3.359375 7.5 7.5 7.5h73.472656c4.90625-11.820312 10.257813-25.621093 21.519531-43.992187zm0 0" fill="#424242"/><g fill="#ffca28"><path d="m391.398438 65.847656c0 4.140625-3.355469 7.496094-7.496094 7.496094s-7.496094-3.355469-7.496094-7.496094 3.355469-7.496094 7.496094-7.496094 7.496094 3.355469 7.496094 7.496094zm0 0"/><path d="m461.070312 103.566406c0 4.140625-3.355468 7.496094-7.496093 7.496094s-7.496094-3.355469-7.496094-7.496094 3.355469-7.496094 7.496094-7.496094 7.496093 3.355469 7.496093 7.496094zm0 0"/><path d="m462.070312 152.707031c0 4.140625-3.355468 7.496094-7.496093 7.496094s-7.496094-3.355469-7.496094-7.496094 3.355469-7.496093 7.496094-7.496093 7.496093 3.355468 7.496093 7.496093zm0 0"/></g></svg>